<svg xmlns="http://www.w3.org/2000/svg" viewBox="0 0 32 32"><defs><style>.a{fill:#05051e;}.b{fill:#fff;}</style></defs><rect class="a" width="32" height="32"/><path class="b" d="M7,13.6v.83H6.47a1.78,1.78,0,0,0-1.88,2,2.16,2.16,0,0,0,.52,1.49,1.49,1.49,0,0,0,1.12.47A1.62,1.62,0,0,0,7,18.22v.08H8V13.6ZM5.57,16.4c0-.4.11-1.07.86-1.12l.57,0V17.3a1.21,1.21,0,0,1-.59.17.82.82,0,0,1-.57-.2,1.16,1.16,0,0,1-.27-.87"/><path class="b" d="M10.71,17.48a.89.89,0,0,1-.94-.83h2.48v0c0-.35,0-.65,0-.78a1.55,1.55,0,0,0-1.68-1.51A1.76,1.76,0,0,0,9.14,15a2.35,2.35,0,0,0-.46,1.45,1.86,1.86,0,0,0,2.05,2,3.54,3.54,0,0,0,1.46-.33v-1a3,3,0,0,1-1.48.39m-.15-2.28a.65.65,0,0,1,.67.62H9.79a.76.76,0,0,1,.77-.62"/><path class="b" d="M15.36,16V18.3h1V15.86c0-1-.48-1.53-1.45-1.53a2.88,2.88,0,0,0-.85.18v-.08h-1V18.3h1V15.4a1.19,1.19,0,0,1,.85-.13c.28.06.41.24.41.74"/><path class="b" d="M25.12,16.72V14.43h-1v2.44c0,1,.47,1.53,1.44,1.53a2.73,2.73,0,0,0,.85-.18v.08h1V14.43h-1v2.9a1.18,1.18,0,0,1-.85.13c-.28-.06-.41-.24-.41-.74"/><path class="b" d="M17.27,13.6V17a1.69,1.69,0,0,0,.25,1,1.17,1.17,0,0,0,1,.4,3.64,3.64,0,0,0,1-.15v-.93a4.44,4.44,0,0,1-.78.12.42.42,0,0,1-.32-.1.6.6,0,0,1-.09-.41V15.28c.41,0,.91,0,1.19.06v-.91H18.3V13.6Z"/><path class="b" d="M23.21,16.42a1.61,1.61,0,0,0-1.11-.54,3,3,0,0,1-.69-.18.21.21,0,0,1-.12-.18.22.22,0,0,1,.11-.17,1.4,1.4,0,0,1,.84,0,6.16,6.16,0,0,1,1,.29v-.94a2.9,2.9,0,0,0-1.38-.32,1.92,1.92,0,0,0-1.11.34,1.18,1.18,0,0,0-.48.93c0,.64.37,1,1.3,1.2a4.35,4.35,0,0,1,.6.15c.12.05.19.13.19.22a.25.25,0,0,1-.16.21,1.52,1.52,0,0,1-.64,0,4.06,4.06,0,0,1-1.22-.33v1a3,3,0,0,0,1.4.33c.67,0,1.51-.21,1.66-1.1a1.12,1.12,0,0,0-.17-.87"/></svg>