<?xml version="1.0" encoding="utf-8"?>
<!-- Generator: Adobe Illustrator 25.1.0, SVG Export Plug-In . SVG Version: 6.00 Build 0)  -->
<svg version="1.1" id="Layer_1" xmlns="http://www.w3.org/2000/svg" xmlns:xlink="http://www.w3.org/1999/xlink" x="0px" y="0px"
	 viewBox="0 0 304 64" style="enable-background:new 0 0 304 64;" xml:space="preserve">
<style type="text/css">
	.st0{fill:#FFFFFF;}
</style>
<g>
	<g>
		<g>
			<g>
				<g id="XMLID_165_">
					<g>
						<g>
							<path class="st0" d="M39.84,35.6c0,4.19-2.93,6.91-6.49,6.91h-0.21h-7.95V24.09h4.6v4.81h3.77l0,0c1.26,0,2.3,0.21,3.35,0.84
								l0,0l0,0C38.58,30.79,39.84,32.88,39.84,35.6z"/>
						</g>
					</g>
				</g>
				<g id="XMLID_91_">
					<g id="XMLID_92_">
						<g id="XMLID_163_">
							<g id="XMLID_164_">
								<g>
									<g>
										<path class="st0" d="M32.09,13.83c0,0.42-0.42,0.84-0.84,0.84c-0.42,0-0.84-0.42-0.84-0.84V3.79
											c0-0.42,0.42-0.84,0.84-0.84c0.42,0,0.84,0.42,0.84,0.84C32.09,3.79,32.09,13.83,32.09,13.83z"/>
									</g>
								</g>
							</g>
						</g>
						<g id="XMLID_161_">
							<g id="XMLID_162_">
								<g>
									<g>
										<path class="st0" d="M35.44,14.25c0,0.42-0.42,0.63-0.84,0.63s-0.63-0.42-0.63-0.84l1.05-5.86c0-0.42,0.42-0.63,0.84-0.63
											s0.63,0.42,0.63,0.84L35.44,14.25z"/>
									</g>
								</g>
							</g>
						</g>
						<g id="XMLID_159_">
							<g id="XMLID_160_">
								<g>
									<g>
										<path class="st0" d="M38.58,15.3c-0.21,0.42-0.63,0.63-1.05,0.42s-0.63-0.63-0.42-1.05l3.56-9.42
											c0-0.42,0.42-0.63,0.84-0.42s0.63,0.63,0.42,1.05L38.58,15.3z"/>
									</g>
								</g>
							</g>
						</g>
						<g id="XMLID_157_">
							<g id="XMLID_158_">
								<g>
									<g>
										<path class="st0" d="M44.23,18.86c-0.21,0.42-0.84,0.42-1.05,0c-0.42-0.21-0.42-0.84,0-1.05l6.49-7.74
											c0.21-0.42,0.84-0.42,1.05,0c0.42,0.21,0.42,0.84,0,1.05L44.23,18.86z"/>
									</g>
								</g>
							</g>
						</g>
						<g id="XMLID_155_">
							<g id="XMLID_156_">
								<g>
									<g>
										<path class="st0" d="M48.42,24.09c-0.42,0.21-0.84,0-1.05-0.21c-0.21-0.42,0-0.84,0.21-1.05l8.79-5.02
											c0.42-0.21,0.84,0,1.05,0.21c0.21,0.42,0,0.84-0.21,1.05L48.42,24.09z"/>
									</g>
								</g>
							</g>
						</g>
						<g id="XMLID_153_">
							<g id="XMLID_154_">
								<g>
									<g>
										<path class="st0" d="M50.3,30.58c-0.42,0-0.84-0.21-0.84-0.63c0-0.42,0.21-0.84,0.63-0.84l10.05-1.67
											c0.42,0,0.84,0.21,0.84,0.63s-0.21,0.84-0.63,0.84L50.3,30.58z"/>
									</g>
								</g>
							</g>
						</g>
						<g id="XMLID_151_">
							<g id="XMLID_152_">
								<g>
									<g>
										<path class="st0" d="M50.09,37.28c-0.42,0-0.63-0.42-0.63-0.84s0.42-0.63,0.84-0.63l10.05,1.67
											c0.42,0,0.63,0.42,0.63,0.84s-0.42,0.63-0.84,0.63L50.09,37.28z"/>
									</g>
								</g>
							</g>
						</g>
						<g id="XMLID_149_">
							<g id="XMLID_150_">
								<g>
									<g>
										<path class="st0" d="M47.58,43.34c-0.42-0.21-0.42-0.63-0.21-1.05c0.21-0.42,0.63-0.42,1.05-0.21l8.79,5.02
											c0.42,0.21,0.42,0.63,0.21,1.05c-0.21,0.42-0.63,0.42-1.05,0.21L47.58,43.34z"/>
									</g>
								</g>
							</g>
						</g>
						<g id="XMLID_147_">
							<g id="XMLID_148_">
								<g>
									<g>
										<path class="st0" d="M42.98,48.37c-0.21-0.42-0.21-0.84,0-1.05c0.42-0.21,0.84-0.21,1.05,0l6.49,7.74
											c0.21,0.42,0.21,0.84,0,1.05c-0.42,0.21-0.84,0.21-1.05,0L42.98,48.37z"/>
									</g>
								</g>
							</g>
						</g>
						<g id="XMLID_145_">
							<g id="XMLID_146_">
								<g>
									<g>
										<path class="st0" d="M37.12,51.51c-0.21-0.42,0-0.84,0.42-1.05c0.42-0.21,0.84,0,1.05,0.42l3.56,9.42
											c0.21,0.42,0,0.84-0.42,1.05c-0.42,0.21-0.84,0-1.05-0.42L37.12,51.51z"/>
									</g>
								</g>
							</g>
						</g>
						<g id="XMLID_143_">
							<g id="XMLID_144_">
								<g>
									<g>
										<path class="st0" d="M30.42,52.34c0-0.42,0.42-0.84,0.84-0.84c0.42,0,0.84,0.42,0.84,0.84v10.05
											c0,0.42-0.42,0.84-0.84,0.84c-0.42,0-0.84-0.42-0.84-0.84V52.34z"/>
									</g>
								</g>
							</g>
						</g>
						<g id="XMLID_141_">
							<g id="XMLID_142_">
								<g>
									<g>
										<path class="st0" d="M23.93,50.88c0.21-0.42,0.63-0.63,1.05-0.42c0.42,0.21,0.63,0.63,0.42,1.05l-3.35,9.42
											c-0.21,0.42-0.63,0.63-1.05,0.42c-0.42-0.21-0.63-0.63-0.42-1.05L23.93,50.88z"/>
									</g>
								</g>
							</g>
						</g>
						<g id="XMLID_139_">
							<g id="XMLID_140_">
								<g>
									<g>
										<path class="st0" d="M18.28,47.32c0.21-0.42,0.84-0.42,1.05,0c0.42,0.21,0.42,0.84,0,1.05l-6.49,7.74
											c-0.21,0.42-0.84,0.42-1.05,0c-0.21-0.21-0.21-0.84,0-1.05L18.28,47.32z"/>
									</g>
								</g>
							</g>
						</g>
						<g id="XMLID_137_">
							<g id="XMLID_138_">
								<g>
									<g>
										<path class="st0" d="M14.3,42.09c0.42-0.21,0.84,0,1.05,0.21c0.21,0.42,0,0.84-0.21,1.05l-8.79,5.02
											c-0.42,0.21-0.84,0-1.05-0.21c-0.21-0.42,0-0.84,0.21-1.05L14.3,42.09z"/>
									</g>
								</g>
							</g>
						</g>
						<g id="XMLID_135_">
							<g id="XMLID_136_">
								<g>
									<g>
										<path class="st0" d="M12.21,35.6c0.42,0,0.84,0.21,0.84,0.63c0,0.42-0.21,0.84-0.63,0.84L2.37,38.74
											c-0.42,0-0.84-0.21-0.84-0.63c0-0.42,0.21-0.84,0.63-0.84L12.21,35.6z"/>
									</g>
								</g>
							</g>
						</g>
						<g id="XMLID_133_">
							<g id="XMLID_134_">
								<g>
									<g>
										<path class="st0" d="M12.42,28.9c0.42,0,0.63,0.42,0.63,0.84c0,0.42-0.42,0.63-0.84,0.63L2.16,28.69
											c-0.42,0-0.63-0.42-0.63-0.84c0-0.42,0.42-0.63,0.84-0.63L12.42,28.9z"/>
									</g>
								</g>
							</g>
						</g>
						<g id="XMLID_131_">
							<g id="XMLID_132_">
								<g>
									<g>
										<path class="st0" d="M14.93,22.83c0.42,0.21,0.42,0.63,0.21,1.05c-0.21,0.42-0.63,0.63-1.05,0.21l-8.58-5.02
											c-0.42-0.21-0.63-0.63-0.42-1.05s0.63-0.42,1.05-0.21L14.93,22.83z"/>
									</g>
								</g>
							</g>
						</g>
						<g id="XMLID_129_">
							<g id="XMLID_130_">
								<g>
									<g>
										<path class="st0" d="M19.53,17.81c0.21,0.42,0.21,0.84,0,1.05c-0.42,0.21-0.84,0.21-1.05,0l-6.7-7.74
											c-0.21-0.42-0.21-0.84,0.21-1.05c0.42-0.21,0.84-0.21,1.05,0L19.53,17.81z"/>
									</g>
								</g>
							</g>
						</g>
						<g id="XMLID_127_">
							<g id="XMLID_128_">
								<g>
									<g>
										<path class="st0" d="M25.39,14.67c0.21,0.42,0,0.84-0.42,1.05c-0.42,0.21-0.84,0-1.05-0.42l-3.35-9.42
											c-0.21-0.42,0-1.05,0.42-1.05c0.42-0.21,0.84,0,1.05,0.42L25.39,14.67z"/>
									</g>
								</g>
							</g>
						</g>
						<g id="XMLID_125_">
							<g id="XMLID_126_">
								<g>
									<g>
										<path class="st0" d="M41.51,16.76c-0.21,0.42-0.63,0.63-1.05,0.42c-0.42-0.21-0.42-0.63-0.21-1.05l2.93-5.23
											c0.21-0.42,0.63-0.42,1.05-0.21c0.42,0.21,0.42,0.63,0.21,1.05L41.51,16.76z"/>
									</g>
								</g>
							</g>
						</g>
						<g id="XMLID_123_">
							<g id="XMLID_124_">
								<g>
									<g>
										<path class="st0" d="M46.53,21.37c-0.42,0.21-0.84,0.21-1.05,0c-0.21-0.42-0.21-0.84,0-1.05l4.6-3.98
											c0.42-0.21,0.84-0.21,1.05,0c0.21,0.21,0.21,0.84,0,1.05L46.53,21.37z"/>
									</g>
								</g>
							</g>
						</g>
						<g id="XMLID_121_">
							<g id="XMLID_122_">
								<g>
									<g>
										<path class="st0" d="M49.67,27.23c-0.42,0.21-0.84,0-1.05-0.42c-0.21-0.42,0-0.84,0.42-1.05l5.65-2.09
											c0.42-0.21,0.84,0,1.05,0.42c0.21,0.42,0,0.84-0.42,1.05L49.67,27.23z"/>
									</g>
								</g>
							</g>
						</g>
						<g id="XMLID_119_">
							<g id="XMLID_120_">
								<g>
									<g>
										<path class="st0" d="M50.51,33.93c-0.42,0-0.84-0.42-0.84-0.84s0.42-0.84,0.84-0.84h6.07c0.42,0,0.84,0.42,0.84,0.84
											s-0.42,0.84-0.84,0.84H50.51z"/>
									</g>
								</g>
							</g>
						</g>
						<g id="XMLID_117_">
							<g id="XMLID_118_">
								<g>
									<g>
										<path class="st0" d="M49.04,40.41c-0.42-0.21-0.63-0.63-0.42-1.05s0.63-0.63,1.05-0.42l5.65,2.09
											c0.42,0.21,0.63,0.63,0.42,1.05c-0.21,0.42-0.63,0.63-1.05,0.42L49.04,40.41z"/>
									</g>
								</g>
							</g>
						</g>
						<g id="XMLID_115_">
							<g id="XMLID_116_">
								<g>
									<g>
										<path class="st0" d="M45.49,46.07c-0.42-0.21-0.42-0.84,0-1.05c0.21-0.42,0.84-0.42,1.05,0l4.6,3.98
											c0.42,0.21,0.42,0.84,0,1.05c-0.21,0.42-0.84,0.42-1.05,0L45.49,46.07z"/>
									</g>
								</g>
							</g>
						</g>
						<g id="XMLID_113_">
							<g id="XMLID_114_">
								<g>
									<g>
										<path class="st0" d="M40.25,50.04c-0.21-0.42,0-0.84,0.21-1.05c0.42-0.21,0.84,0,1.05,0.21l2.93,5.23
											c0.21,0.42,0,0.84-0.21,1.05c-0.42,0.21-0.84,0-1.05-0.21L40.25,50.04z"/>
									</g>
								</g>
							</g>
						</g>
						<g id="XMLID_111_">
							<g id="XMLID_112_">
								<g>
									<g>
										<path class="st0" d="M33.77,52.13c0-0.42,0.21-0.84,0.63-0.84c0.42,0,0.84,0.21,0.84,0.63l1.05,5.86
											c0,0.42-0.21,0.84-0.63,0.84c-0.42,0-0.84-0.21-0.84-0.63L33.77,52.13z"/>
									</g>
								</g>
							</g>
						</g>
						<g id="XMLID_109_">
							<g id="XMLID_110_">
								<g>
									<g>
										<path class="st0" d="M27.07,51.93c0-0.42,0.42-0.63,0.84-0.63c0.42,0,0.63,0.42,0.63,0.84l-1.05,5.86
											c0,0.42-0.42,0.63-0.84,0.63c-0.42,0-0.63-0.42-0.63-0.84L27.07,51.93z"/>
									</g>
								</g>
							</g>
						</g>
						<g id="XMLID_107_">
							<g id="XMLID_108_">
								<g>
									<g>
										<path class="st0" d="M21,49.41C21.21,49,21.63,49,22.05,49.2c0.42,0.21,0.42,0.63,0.21,1.05l-2.93,5.23
											c-0.21,0.42-0.63,0.42-1.05,0.21c-0.42-0.21-0.63-0.84-0.42-1.05L21,49.41z"/>
									</g>
								</g>
							</g>
						</g>
						<g id="XMLID_105_">
							<g id="XMLID_106_">
								<g>
									<g>
										<path class="st0" d="M15.98,44.81c0.42-0.21,0.84-0.21,1.05,0c0.21,0.42,0.21,0.84,0,1.05l-4.6,3.77
											c-0.42,0.21-0.84,0.21-1.05,0c-0.21-0.42-0.21-0.84,0-1.05L15.98,44.81z"/>
									</g>
								</g>
							</g>
						</g>
						<g id="XMLID_103_">
							<g id="XMLID_104_">
								<g>
									<g>
										<path class="st0" d="M13.05,38.95c0.42-0.21,0.84,0,1.05,0.42c0.21,0.42,0,0.84-0.42,1.05l-5.65,2.09
											c-0.42,0.21-0.84,0-1.05-0.42c-0.21-0.42,0-0.84,0.42-1.05L13.05,38.95z"/>
									</g>
								</g>
							</g>
						</g>
						<g id="XMLID_101_">
							<g id="XMLID_102_">
								<g>
									<g>
										<path class="st0" d="M12,32.25c0.42,0,0.84,0.42,0.84,0.84s-0.42,0.84-0.84,0.84H5.93c-0.42,0-0.84-0.42-0.84-0.84
											s0.42-0.84,0.84-0.84H12z"/>
									</g>
								</g>
							</g>
						</g>
						<g id="XMLID_99_">
							<g id="XMLID_100_">
								<g>
									<g>
										<path class="st0" d="M13.47,25.76c0.42,0.21,0.63,0.63,0.42,1.05c-0.21,0.42-0.63,0.63-1.05,0.42l-5.65-2.09
											c-0.42-0.21-0.63-0.63-0.42-1.05c0.21-0.42,0.63-0.63,1.05-0.42L13.47,25.76z"/>
									</g>
								</g>
							</g>
						</g>
						<g id="XMLID_97_">
							<g id="XMLID_98_">
								<g>
									<g>
										<path class="st0" d="M17.02,20.11c0.42,0.21,0.42,0.84,0,1.05c-0.21,0.42-0.63,0.42-1.05,0.21l-4.6-3.98
											c-0.42-0.21-0.42-0.84,0-1.05c0.21-0.42,0.84-0.42,1.05,0L17.02,20.11z"/>
									</g>
								</g>
							</g>
						</g>
						<g id="XMLID_95_">
							<g id="XMLID_96_">
								<g>
									<g>
										<path class="st0" d="M22.26,16.14c0.21,0.42,0,0.84-0.21,1.05c-0.42,0.21-0.84,0-1.05-0.42l-3.14-5.23
											c-0.21-0.21,0-0.84,0.42-1.05c0.42-0.21,0.84,0,1.05,0.21L22.26,16.14z"/>
									</g>
								</g>
							</g>
						</g>
						<g id="XMLID_93_">
							<g id="XMLID_94_">
								<g>
									<g>
										<path class="st0" d="M28.74,14.04c0,0.42-0.21,0.84-0.63,0.84s-0.84-0.21-0.84-0.63l-1.05-5.86
											c0-0.42,0.21-0.84,0.63-0.84c0.42,0,0.84,0.21,0.84,0.63L28.74,14.04z"/>
									</g>
								</g>
							</g>
						</g>
					</g>
				</g>
			</g>
		</g>
	</g>
	<g>
		<g>
			<g>
				<path class="st0" d="M97.81,38.11c0,6.7-4.6,11.09-10.67,11.09c-2.72,0-5.02-0.84-6.7-2.72v2.3h-6.07V19.07h6.07v10.46
					c1.67-1.67,3.77-2.72,6.49-2.72C93.2,27.02,97.81,31.41,97.81,38.11z M91.53,38.11c0-3.77-2.3-6.07-5.44-6.07
					c-3.14,0-5.44,2.3-5.44,6.07c0,3.77,2.3,6.07,5.44,6.07C89.23,44.18,91.53,41.67,91.53,38.11z"/>
			</g>
			<g>
				<path class="st0" d="M115.18,27.02v5.86c-0.63,0-0.84,0-1.47,0c-3.35,0-5.65,1.88-5.65,6.07V49H102V27.23h5.86v2.72
					C109.32,28.07,111.83,27.02,115.18,27.02z"/>
			</g>
			<g>
				<path class="st0" d="M137.78,36.65v12.14h-5.86v-2.72c-1.26,1.88-3.35,2.93-6.49,2.93c-5.02,0-7.95-2.72-7.95-6.49
					c0-3.77,2.72-6.28,9.21-6.28h5.02c0-2.72-1.67-4.19-5.02-4.19c-2.3,0-4.6,0.63-6.07,1.88l-2.3-4.4c2.3-1.67,5.86-2.72,9.21-2.72
					C134.02,27.02,137.78,30.16,137.78,36.65z M131.51,42.09V40h-4.19c-2.93,0-3.98,1.05-3.98,2.51c0,1.67,1.26,2.72,3.56,2.72
					C129.2,44.81,130.88,43.97,131.51,42.09z"/>
			</g>
			<g>
				<path class="st0" d="M165.2,36.44v12.35h-6.07v-11.3c0-3.56-1.67-5.02-4.4-5.02c-2.93,0-5.02,1.67-5.02,5.86v10.46h-6.28V27.23
					h6.07v2.51c1.67-1.67,4.19-2.72,7.12-2.72C161.64,27.02,165.2,29.95,165.2,36.44z"/>
			</g>
			<g>
				<path class="st0" d="M192.83,19.07v29.72h-5.86v-2.51c-1.67,1.88-3.98,2.72-6.7,2.72c-6.07,0-10.67-4.19-10.67-11.09
					s4.6-11.09,10.67-11.09c2.72,0,5.02,0.84,6.28,2.72V19.07C186.55,19.07,192.83,19.07,192.83,19.07z M186.97,38.11
					c0-3.77-2.51-6.07-5.44-6.07c-3.14,0-5.44,2.3-5.44,6.07c0,3.77,2.51,6.07,5.44,6.07C184.46,43.97,186.97,41.67,186.97,38.11z"
					/>
			</g>
			<g>
				<path class="st0" d="M220.03,27.23l-9,21.56h-6.28l-9-21.56h6.28l6.07,14.65l6.07-14.65C214.17,27.23,220.03,27.23,220.03,27.23
					z"/>
			</g>
			<g>
				<path class="st0" d="M221.71,20.95c0-1.88,1.67-3.56,3.98-3.56c2.3,0,3.98,1.47,3.98,3.35c0,2.09-1.67,3.56-3.98,3.56
					C223.38,24.3,221.71,22.83,221.71,20.95z M222.55,27.23h6.07v21.56h-6.07V27.23z"/>
			</g>
			<g>
				<path class="st0" d="M255.79,39.71l-16.5,0.08c0.63,2.72,2.72,4.19,6.07,4.19c2.3,0,3.98-0.63,5.44-2.09l3.35,3.56
					c-1.88,2.3-5.02,3.56-8.79,3.56c-7.33,0-12.14-4.6-12.14-11.09c0-6.28,5.02-11.09,11.51-11.09c6.28,0,11.09,4.19,11.09,11.09
					C255.81,38.57,255.79,38.82,255.79,39.71z M239.08,36.23h10.46c-0.42-2.72-2.51-4.4-5.23-4.4
					C241.59,31.62,239.5,33.51,239.08,36.23z"/>
			</g>
			<g>
				<path class="st0" d="M293.71,27.23l-7.74,21.56h-6.07l-4.81-13.39l-5.02,13.39h-6.07l-7.53-21.56h5.86l5.02,14.44l5.23-14.44
					h5.23l5.02,14.44l5.23-14.44C288.26,27.23,293.71,27.23,293.71,27.23z"/>
			</g>
		</g>
	</g>
	<g>
		<path class="st0" d="M302.71,23.09c0,2.2-1.71,3.9-3.9,3.9s-3.87-1.71-3.87-3.87s1.67-3.87,3.9-3.87
			C301.07,19.25,302.71,20.93,302.71,23.09z M301.96,23.09c0-1.8-1.31-3.15-3.12-3.15c-1.8,0.03-3.12,1.41-3.12,3.18
			s1.31,3.15,3.12,3.15C300.65,26.27,301.96,24.9,301.96,23.09z M300.06,23.81l0.92,1.44h-1.15l-0.79-1.21h-0.03h-0.72v1.21h-1.15
			v-4.27h1.87c1.15,0,1.87,0.59,1.87,1.51C300.88,23.12,300.58,23.58,300.06,23.81z M298.94,23.16c0.52,0,0.82-0.23,0.82-0.66
			c0-0.43-0.3-0.66-0.82-0.66h-0.66v1.35h0.66V23.16z"/>
	</g>
</g>
</svg>
